<svg width="35" height="34" viewBox="0 0 35 34" fill="none" xmlns="http://www.w3.org/2000/svg">
<rect x="1" y="0.5" width="33" height="33" rx="7.5" fill="#060B27"/>
<rect x="1" y="0.5" width="33" height="33" rx="7.5" stroke="#282D45"/>
<path d="M20.06 17C20.06 17.5063 19.9099 18.0013 19.6286 18.4223C19.3473 18.8432 18.9474 19.1714 18.4797 19.3651C18.0119 19.5589 17.4972 19.6096 17.0006 19.5108C16.504 19.412 16.0478 19.1682 15.6898 18.8102C15.3318 18.4522 15.088 17.996 14.9892 17.4994C14.8904 17.0028 14.9411 16.4881 15.1349 16.0203C15.3286 15.5526 15.6568 15.1527 16.0777 14.8714C16.4987 14.5901 16.9937 14.44 17.5 14.44C18.1783 14.4421 18.8282 14.7125 19.3079 15.1921C19.7875 15.6718 20.0579 16.3217 20.06 17ZM25.5 13.48V20.52C25.5 21.7082 25.028 22.8477 24.1878 23.6878C23.3477 24.528 22.2082 25 21.02 25H13.98C12.7918 25 11.6523 24.528 10.8122 23.6878C9.972 22.8477 9.5 21.7082 9.5 20.52V13.48C9.5 12.2918 9.972 11.1523 10.8122 10.3122C11.6523 9.472 12.7918 9 13.98 9H21.02C22.2082 9 23.3477 9.472 24.1878 10.3122C25.028 11.1523 25.5 12.2918 25.5 13.48ZM21.34 17C21.34 16.2405 21.1148 15.4981 20.6928 14.8666C20.2709 14.2351 19.6712 13.7429 18.9695 13.4523C18.2678 13.1617 17.4957 13.0856 16.7509 13.2338C16.006 13.382 15.3217 13.7477 14.7847 14.2847C14.2477 14.8217 13.882 15.506 13.7338 16.2509C13.5856 16.9957 13.6617 17.7678 13.9523 18.4695C14.2429 19.1712 14.7351 19.7709 15.3666 20.1928C15.9981 20.6148 16.7405 20.84 17.5 20.84C18.5184 20.84 19.4952 20.4354 20.2153 19.7153C20.9354 18.9952 21.34 18.0184 21.34 17ZM22.62 12.84C22.62 12.6501 22.5637 12.4645 22.4582 12.3067C22.3527 12.1488 22.2028 12.0257 22.0274 11.9531C21.852 11.8804 21.6589 11.8614 21.4727 11.8984C21.2865 11.9355 21.1154 12.0269 20.9812 12.1612C20.8469 12.2954 20.7555 12.4665 20.7184 12.6527C20.6814 12.8389 20.7004 13.032 20.7731 13.2074C20.8457 13.3828 20.9688 13.5327 21.1267 13.6382C21.2845 13.7437 21.4701 13.8 21.66 13.8C21.9146 13.8 22.1588 13.6989 22.3388 13.5188C22.5189 13.3388 22.62 13.0946 22.62 12.84Z" fill="#8F9BB7"/>
</svg>
