<svg width="35" height="34" viewBox="0 0 35 34" fill="none" xmlns="http://www.w3.org/2000/svg">
<rect x="1" y="0.5" width="33" height="33" rx="7.5" fill="#060B27"/>
<rect x="1" y="0.5" width="33" height="33" rx="7.5" stroke="#282D45"/>
<path d="M13.0677 10.7786C13.0674 11.25 12.8793 11.7021 12.5446 12.0353C12.2099 12.3685 11.7561 12.5556 11.2829 12.5554C10.8098 12.5551 10.3562 12.3676 10.0218 12.0341C9.68748 11.7005 9.49976 11.2483 9.5 10.7768C9.50024 10.3053 9.6884 9.85325 10.0231 9.52004C10.3578 9.18683 10.8116 8.99976 11.2847 9C11.7578 9.00024 12.2115 9.18775 12.5458 9.5213C12.8802 9.85484 13.0679 10.3071 13.0677 10.7786ZM13.1212 13.8717H9.55352V25H13.1212V13.8717ZM18.7581 13.8717H15.2083V25H18.7225V19.1603C18.7225 15.9072 22.9769 15.605 22.9769 19.1603V25H26.5V17.9515C26.5 12.4674 20.203 12.6718 18.7225 15.365L18.7581 13.8717Z" fill="#8F9BB7"/>
</svg>
