<svg width="35" height="34" viewBox="0 0 35 34" fill="none" xmlns="http://www.w3.org/2000/svg">
<rect x="1" y="0.5" width="33" height="33" rx="7.5" fill="#060B27"/>
<rect x="1" y="0.5" width="33" height="33" rx="7.5" stroke="#282D45"/>
<path d="M26.5 11.7647C25.8375 12.0735 25.1233 12.2765 24.3834 12.3735C25.1405 11.9059 25.7256 11.1647 26.001 10.2735C25.2868 10.7147 24.4952 11.0235 23.6606 11.2C22.9809 10.4412 22.0258 10 20.9417 10C18.9197 10 17.2677 11.6941 17.2677 13.7853C17.2677 14.0853 17.3021 14.3765 17.3623 14.65C14.2992 14.4912 11.5717 12.9824 9.75621 10.6971C9.43786 11.2529 9.25717 11.9059 9.25717 12.5941C9.25717 13.9088 9.90249 15.0735 10.9006 15.7353C10.2897 15.7353 9.7218 15.5588 9.22275 15.2941V15.3206C9.22275 17.1559 10.4962 18.6912 12.1826 19.0353C11.6412 19.1872 11.0727 19.2084 10.522 19.0971C10.7557 19.8492 11.2134 20.5074 11.8307 20.9791C12.448 21.4507 13.194 21.7121 13.9637 21.7265C12.659 22.7857 11.0417 23.3582 9.37763 23.35C9.08509 23.35 8.79254 23.3324 8.5 23.2971C10.1348 24.3735 12.0793 25 14.1616 25C20.9417 25 24.6673 19.2294 24.6673 14.2265C24.6673 14.0588 24.6673 13.9 24.6587 13.7324C25.3815 13.2029 26.001 12.5324 26.5 11.7647Z" fill="#8F9BB7"/>
</svg>
